<svg width="1010" height="1010" viewBox="0 0 1010 1010" fill="none" xmlns="http://www.w3.org/2000/svg">
  <rect width="1010" height="1010" fill="white" />
  <path d="M584 409C622.241 391.5 647 392 666 391H874V404C868 450.4 843.5 463.5 829 467H758V588.5C755 645.5 718.5 709.5 660 733V467H614C566.5 477.5 542.167 508.5 522 528V483.5C525.6 465.5 536.5 446.667 542 440.5C560 420.318 574.167 413.5 584 409Z" fill="#161D22" stroke="black" />
  <path d="M551 514C568.6 498.4 583.333 489.833 588 488V717C564.8 710.6 533.5 689 522 679L522.5 545C535.3 529 547 517.667 551 514Z" fill="#161D22" stroke="black" />
  <circle cx="556.5" cy="330.5" r="36" fill="#161D22" stroke="black" />
  <path d="M295 274H190V734H216C235.833 707.833 283.9 646.2 317.5 609L384 680C404.5 700 442 731.5 488 736H611C583.5 726.167 563 728 498 672L374 543.5C404.5 517 493 424.5 598 392.5L496 392C457 395.5 415.5 410 363 446.5C354.167 452.167 328.6 471 297 501H295V274Z" fill="#161D22" stroke="black" />
</svg>
